<svg width="22" height="24" viewBox="0 0 22 24" fill="none" xmlns="http://www.w3.org/2000/svg">
<path d="M6.36386 22.0467L8.74029 23.6496C9.48717 24.1534 10.6267 23.7821 11.2726 22.8246L12.8872 20.4307C12.6156 20.2475 12.5835 19.7826 12.8184 19.4344C13.0532 19.0862 13.4964 18.9418 13.768 19.125L20.667 8.89674C21.3129 7.9392 21.2302 6.74358 20.4833 6.2398L18.1069 4.63688C17.461 5.59442 16.3215 5.96568 15.5746 5.4619C14.8278 4.95812 14.7451 3.7625 15.391 2.80496L13.0145 1.20204C12.2677 0.698259 11.1281 1.06952 10.4823 2.02706L3.58324 12.2553C3.85483 12.4385 3.88697 12.9035 3.65211 13.2517C3.41725 13.5999 2.9741 13.7442 2.70251 13.561L1.08784 15.9549C0.441971 16.9124 0.524617 18.108 1.2715 18.6118L3.64793 20.2148C4.2938 19.2572 5.43332 18.886 6.1802 19.3897C6.92708 19.8935 7.00973 21.0891 6.36386 22.0467ZM4.33109 13.7096C4.56595 13.3614 5.0091 13.2171 5.28069 13.4003C5.55228 13.5834 5.58442 14.0484 5.34956 14.3966C5.1147 14.7448 4.67156 14.8892 4.39996 14.706C4.12837 14.5228 4.09623 14.0578 4.33109 13.7096ZM6.02854 14.8546C6.26341 14.5064 6.70655 14.362 6.97814 14.5452C7.24974 14.7284 7.28188 15.1934 7.04702 15.5416C6.81216 15.8897 6.36901 16.0341 6.09742 15.8509C5.82582 15.6677 5.79368 15.2028 6.02854 14.8546ZM7.726 15.9995C7.96086 15.6513 8.40401 15.507 8.6756 15.6901C8.94719 15.8733 8.97933 16.3383 8.74447 16.6865C8.50961 17.0347 8.06646 17.1791 7.79487 16.9959C7.52328 16.8127 7.49114 16.3477 7.726 15.9995ZM9.42345 17.1445C9.65831 16.7963 10.1015 16.6519 10.3731 16.8351C10.6446 17.0183 10.6768 17.4833 10.4419 17.8314C10.2071 18.1796 9.76392 18.324 9.49232 18.1408C9.22073 17.9576 9.18859 17.4927 9.42345 17.1445ZM11.1209 18.2894C11.3558 17.9412 11.7989 17.7969 12.0705 17.98C12.3421 18.1632 12.3742 18.6282 12.1394 18.9764C11.9045 19.3246 11.4614 19.469 11.1898 19.2858C10.9182 19.1026 10.886 18.6376 11.1209 18.2894Z" fill="white"/>
</svg>
