<svg width="16" height="16" viewBox="0 0 16 16" fill="none" xmlns="http://www.w3.org/2000/svg">
<g clip-path="url(#clip0_163_120)">
<path d="M8.5 15C10.4891 15 12.3968 14.2098 13.8033 12.8033C15.2098 11.3968 16 9.48912 16 7.5C16 5.51088 15.2098 3.60322 13.8033 2.1967C12.3968 0.790176 10.4891 0 8.5 0C6.51088 0 4.60322 0.790176 3.1967 2.1967C1.79018 3.60322 1 5.51088 1 7.5C1 9.48912 1.79018 11.3968 3.1967 12.8033C4.60322 14.2098 6.51088 15 8.5 15ZM7.32812 9.84375H8.03125V7.96875H7.32812C6.93848 7.96875 6.625 7.65527 6.625 7.26562C6.625 6.87598 6.93848 6.5625 7.32812 6.5625H8.73438C9.12402 6.5625 9.4375 6.87598 9.4375 7.26562V9.84375H9.67188C10.0615 9.84375 10.375 10.1572 10.375 10.5469C10.375 10.9365 10.0615 11.25 9.67188 11.25H7.32812C6.93848 11.25 6.625 10.9365 6.625 10.5469C6.625 10.1572 6.93848 9.84375 7.32812 9.84375ZM8.5 3.75C8.74864 3.75 8.9871 3.84877 9.16291 4.02459C9.33873 4.2004 9.4375 4.43886 9.4375 4.6875C9.4375 4.93614 9.33873 5.1746 9.16291 5.35041C8.9871 5.52623 8.74864 5.625 8.5 5.625C8.25136 5.625 8.0129 5.52623 7.83709 5.35041C7.66127 5.1746 7.5625 4.93614 7.5625 4.6875C7.5625 4.43886 7.66127 4.2004 7.83709 4.02459C8.0129 3.84877 8.25136 3.75 8.5 3.75Z" fill="white"/>
</g>
<defs>
<clipPath id="clip0_163_120">
<rect width="15" height="15" fill="white" transform="translate(0.5 0.25)"/>
</clipPath>
</defs>
</svg>
