<svg width="100" height="113" viewBox="0 0 100 113" fill="none" xmlns="http://www.w3.org/2000/svg">
<path d="M11.8029 14.8145H88.197C91.2471 14.8145 94.1722 16.0261 96.3289 18.1828C98.4856 20.3395 99.6972 23.2646 99.6972 26.3146H0.302734C0.302734 23.2646 1.51435 20.3395 3.67105 18.1828C5.82776 16.0261 8.75288 14.8145 11.8029 14.8145Z" fill="#3F3D56"/>
<path d="M93.5363 13.9926C93.0891 13.9945 92.6453 14.0701 92.2226 14.2162C92.0777 13.6329 91.7242 13.1229 91.2289 12.7824C90.7336 12.4419 90.1308 12.2946 89.5343 12.3681C88.9378 12.4417 88.3889 12.7311 87.9911 13.1817C87.5934 13.6323 87.3744 14.213 87.3755 14.814C87.3755 14.8263 87.3785 14.8377 87.3788 14.8499C87.0707 14.8791 86.7668 14.9421 86.4725 15.0377C86.3891 14.706 86.2377 14.3953 86.028 14.1251C85.8183 13.8549 85.5549 13.6311 85.2543 13.4679C86.0439 13.0314 86.6684 12.3479 87.032 11.5222C87.4939 11.5681 87.9602 11.5162 88.4006 11.3697C88.841 11.2233 89.2455 10.9857 89.588 10.6725C89.9304 10.3592 90.2029 9.97727 90.3878 9.55159C90.5727 9.12591 90.6658 8.66603 90.6611 8.20195C90.6563 7.73787 90.5538 7.28001 90.3603 6.85821C90.1667 6.43641 89.8864 6.06015 89.5376 5.75395C89.1889 5.44775 88.7794 5.21848 88.3361 5.08111C87.8928 4.94374 87.4256 4.90135 86.9648 4.9567C86.5176 4.95867 86.0738 5.03423 85.6512 5.18036C85.5753 4.85733 85.4347 4.55303 85.238 4.28581C85.0413 4.0186 84.7925 3.79402 84.5066 3.62561C84.2207 3.45721 83.9036 3.34848 83.5745 3.30599C83.2455 3.2635 82.9112 3.28813 82.5919 3.37839C82.2726 3.46864 81.9749 3.62267 81.7167 3.83115C81.4586 4.03963 81.2453 4.29824 81.0899 4.5914C80.9345 4.88455 80.8401 5.20617 80.8124 5.53683C80.7846 5.86748 80.8242 6.20031 80.9287 6.51525C80.8305 6.58358 80.7388 6.66034 80.647 6.7367C80.1824 6.33682 79.5789 6.13596 78.9673 6.17758C78.6514 5.27041 78.0263 4.50332 77.2016 4.01071C76.377 3.51811 75.4053 3.3314 74.4568 3.4833C73.5082 3.63519 72.6434 4.11601 72.0138 4.84151C71.3842 5.567 71.03 6.4909 71.0132 7.45135C70.6835 7.47745 70.3581 7.54234 70.0437 7.64468C70.0084 7.50568 69.961 7.37003 69.902 7.23928C70.2263 6.9532 70.4869 6.60218 70.6668 6.20896C70.8468 5.81575 70.9421 5.38911 70.9466 4.9567C70.889 4.03196 70.4681 3.16753 69.7756 2.55198C69.0831 1.93643 68.1752 1.61972 67.2501 1.67093C66.803 1.6729 66.3591 1.74847 65.9365 1.89459C65.8606 1.57156 65.7201 1.26726 65.5234 1.00005C65.3267 0.732832 65.0779 0.508248 64.792 0.339845C64.5061 0.171441 64.189 0.0627149 63.8599 0.0202222C63.5308 -0.0222705 63.1966 0.00236304 62.8773 0.0926198C62.5579 0.182876 62.2603 0.336899 62.0021 0.545381C61.744 0.753862 61.5307 1.01247 61.3753 1.30563C61.2199 1.59879 61.1255 1.92041 61.0977 2.25106C61.07 2.58172 61.1096 2.91454 61.2141 3.22948C60.6968 3.58868 60.2693 4.06229 59.9649 4.61351C59.6604 5.16473 59.4871 5.77873 59.4584 6.40781C59.4237 6.43869 59.3839 6.46366 59.3509 6.49645C59.4124 6.26189 59.4445 6.02061 59.4464 5.77814C59.3888 4.8534 58.9678 3.98897 58.2753 3.37342C57.5828 2.75787 56.6751 2.44116 55.75 2.49237C55.3028 2.49435 54.859 2.56991 54.4363 2.71603C54.3604 2.39301 54.2199 2.0887 54.0232 1.82149C53.8265 1.55427 53.5776 1.32969 53.2917 1.16129C53.0058 0.992883 52.6888 0.884157 52.3597 0.841664C52.0306 0.799172 51.6963 0.823805 51.377 0.914062C51.0577 1.00432 50.76 1.15834 50.5019 1.36682C50.2437 1.5753 50.0305 1.83392 49.8751 2.12707C49.7196 2.42023 49.6252 2.74185 49.5975 3.0725C49.5698 3.40316 49.6094 3.73598 49.7138 4.05092C49.1685 4.42775 48.7228 4.93129 48.4149 5.51828C48.1071 6.10527 47.9462 6.75819 47.9462 7.42102C47.9462 8.08386 48.1071 8.7368 48.4149 9.32379C48.7228 9.91078 49.1685 10.4143 49.7138 10.7911C49.5475 11.2685 49.5475 11.788 49.7138 12.2653C49.3022 12.5526 48.9461 12.9121 48.6629 13.3265C48.5108 12.7747 48.1703 12.2937 47.7005 11.9669C47.2307 11.64 46.6613 11.488 46.0911 11.5373C45.5209 11.5866 44.986 11.834 44.5792 12.2366C44.1724 12.6392 43.9195 13.1716 43.8644 13.7412C43.535 13.5483 43.1792 13.4045 42.8083 13.3146C43.4737 12.8753 43.9976 12.2528 44.3169 11.5222C44.7788 11.5681 45.2451 11.5162 45.6855 11.3697C46.1259 11.2233 46.5305 10.9857 46.8729 10.6725C47.2153 10.3592 47.4879 9.97727 47.6728 9.55159C47.8577 9.12591 47.9508 8.66603 47.946 8.20195C47.9413 7.73787 47.8388 7.28001 47.6452 6.85821C47.4516 6.43641 47.1713 6.06015 46.8225 5.75395C46.4738 5.44775 46.0644 5.21848 45.6211 5.08111C45.1778 4.94374 44.7105 4.90135 44.2497 4.9567C43.8025 4.95867 43.3587 5.03423 42.9361 5.18036C42.8602 4.85733 42.7197 4.55303 42.5229 4.28581C42.3262 4.0186 42.0775 3.79402 41.7915 3.62561C41.5056 3.45721 41.1885 3.34848 40.8595 3.30599C40.5304 3.2635 40.1961 3.28813 39.8768 3.37839C39.5575 3.46864 39.2598 3.62267 39.0017 3.83115C38.7435 4.03963 38.5303 4.29824 38.3749 4.5914C38.2194 4.88455 38.125 5.20617 38.0973 5.53683C38.0696 5.86748 38.1092 6.20031 38.2136 6.51525C38.1609 6.5519 38.1135 6.59502 38.0626 6.63402C37.9344 6.62209 37.8098 6.59958 37.6782 6.59958C37.231 6.60156 36.7872 6.67712 36.3645 6.82324C36.349 6.76127 36.3235 6.70376 36.3034 6.64375C36.3829 6.27805 36.3765 5.89891 36.2848 5.53608C36.1931 5.17324 36.0185 4.83662 35.7748 4.55264C35.531 4.26867 35.2247 4.04507 34.88 3.89943C34.5352 3.75379 34.1614 3.69005 33.7879 3.71325C33.574 3.11759 33.2252 2.57949 32.7688 2.14101C32.3124 1.70253 31.7608 1.37559 31.157 1.18573C30.5533 0.995862 29.9137 0.948218 29.2885 1.04655C28.6633 1.14488 28.0693 1.3865 27.553 1.75253C27.0367 2.11855 26.612 2.59905 26.3123 3.15646C26.0125 3.71386 25.8457 4.33306 25.825 4.96562C25.8042 5.59818 25.9301 6.22698 26.1928 6.80281C26.4554 7.37864 26.8477 7.88589 27.339 8.28493C27.0564 8.31734 26.7777 8.37804 26.5072 8.46612C26.4101 8.06563 26.2132 7.69625 25.9349 7.39234C25.6565 7.08844 25.3058 6.85991 24.9154 6.72803C24.525 6.59615 24.1075 6.56521 23.7019 6.63811C23.2963 6.71101 22.9157 6.88535 22.5957 7.14492C22.2296 6.71011 21.7715 6.36199 21.2546 6.12564C20.7377 5.88928 20.1747 5.77058 19.6064 5.77814C19.1592 5.78011 18.7154 5.85568 18.2928 6.0018C18.2169 5.67877 18.0764 5.37447 17.8796 5.10726C17.6829 4.84004 17.4341 4.61546 17.1482 4.44705C16.8623 4.27865 16.5453 4.16992 16.2162 4.12743C15.8871 4.08494 15.5528 4.10957 15.2335 4.19983C14.9142 4.29009 14.6165 4.44411 14.3584 4.65259C14.1002 4.86107 13.887 5.11968 13.7316 5.41284C13.5761 5.706 13.4817 6.02762 13.454 6.35827C13.4263 6.68893 13.4659 7.02175 13.5703 7.33669C13.0251 7.71362 12.5795 8.21718 12.2716 8.80415C11.9638 9.39112 11.8028 10.044 11.8027 10.7068C11.8027 10.7195 11.8064 10.7312 11.8065 10.7439C11.224 10.6556 10.6286 10.7199 10.0783 10.9305C10.0025 10.6074 9.86193 10.3031 9.66522 10.0359C9.4685 9.76869 9.21967 9.54411 8.93377 9.37571C8.64787 9.2073 8.33081 9.09858 8.00173 9.05608C7.67264 9.01359 7.3384 9.03823 7.01909 9.12848C6.69979 9.21874 6.40204 9.37276 6.14391 9.58124C5.88577 9.78972 5.67258 10.0483 5.51714 10.3415C5.36171 10.6346 5.26725 10.9563 5.23954 11.2869C5.21182 11.6176 5.25139 11.9504 5.35585 12.2653C4.56367 12.8017 3.98453 13.5987 3.71914 14.5178C3.45374 15.4369 3.51892 16.4199 3.90329 17.296C4.28766 18.172 4.96689 18.8856 5.82293 19.3127C6.67896 19.7398 7.65761 19.8533 8.58868 19.6335C8.73694 20.4905 9.15438 21.278 9.78043 21.8818C10.4065 22.4855 11.2086 22.8741 12.0704 22.9912C12.9323 23.1082 13.809 22.9477 14.5734 22.5329C15.3378 22.1181 15.9502 21.4705 16.3217 20.6841C19.2803 21.0688 22.2834 20.9335 25.1954 20.2842C25.4669 21.0623 25.9669 21.7403 26.6302 22.2295C27.2934 22.7187 28.0889 22.9962 28.9124 23.0258C29.736 23.0554 30.5493 22.8357 31.246 22.3954C31.9426 21.9551 32.4901 21.3147 32.8167 20.5581C33.4156 20.5462 34.0043 20.4005 34.5396 20.1318C34.9144 20.7943 35.4668 21.339 36.1344 21.7046C36.8021 22.0702 37.5585 22.2421 38.3186 22.201C39.0787 22.16 39.8122 21.9075 40.4366 21.4721C41.0609 21.0368 41.5513 20.4357 41.8526 19.7366C42.7662 19.5634 43.7116 19.7157 44.5247 20.167C45.3377 20.6183 45.967 21.34 46.3033 22.207C46.8527 21.455 47.5594 20.8318 48.3743 20.3808C49.1891 19.9299 50.0925 19.662 51.0215 19.5959C51.847 19.826 52.7246 19.7851 53.5252 19.4794C54.3258 19.1736 55.0072 18.6191 55.4692 17.8973C55.2111 18.8976 55.3396 19.9584 55.829 20.8682C56.3185 21.7779 57.1329 22.4697 58.1098 22.8055C59.0868 23.1413 60.1544 23.0964 61.0998 22.6799C62.0451 22.2633 62.7986 21.5057 63.2101 20.5581C63.809 20.5462 64.3976 20.4005 64.933 20.1318C65.3078 20.7943 65.8601 21.339 66.5278 21.7046C67.1954 22.0702 67.9519 22.2421 68.7119 22.201C69.472 22.16 70.2055 21.9075 70.8299 21.4721C71.4543 21.0368 71.9447 20.4357 72.2459 19.7366C72.8448 19.7247 73.4335 19.5791 73.9688 19.3103C74.2577 19.8251 74.6552 20.2707 75.1338 20.6162C75.6123 20.9618 76.1604 21.199 76.7398 21.3113C77.3193 21.4236 77.9163 21.4084 78.4893 21.2666C79.0622 21.1249 79.5975 20.86 80.0577 20.4905C80.2004 21.2763 80.5699 22.0031 81.1208 22.5813C81.6718 23.1595 82.3799 23.5637 83.1579 23.7441C83.9358 23.9246 84.7496 23.8732 85.4988 23.5965C86.2479 23.3198 86.8997 22.8298 87.3736 22.187C87.8666 22.5648 88.4393 22.825 89.0482 22.9479C89.657 23.0707 90.2859 23.0529 90.8868 22.8958C91.4877 22.7387 92.0448 22.4464 92.5156 22.0413C92.9864 21.6361 93.3585 21.1288 93.6034 20.5581C94.0652 20.604 94.5315 20.552 94.9719 20.4056C95.4124 20.2592 95.817 20.0216 96.1594 19.7083C96.5018 19.395 96.7743 19.0131 96.9592 18.5874C97.1441 18.1617 97.2373 17.7019 97.2325 17.2378C97.2278 16.7737 97.1252 16.3158 96.9316 15.894C96.7381 15.4722 96.4578 15.096 96.109 14.7898C95.7602 14.4836 95.3509 14.2543 94.9076 14.1169C94.4643 13.9796 93.9971 13.9372 93.5363 13.9926ZM20.1173 12.2972C20.113 12.317 20.11 12.3373 20.1059 12.3573C20.0759 12.3562 20.0475 12.3497 20.0172 12.3497C19.8945 12.3528 19.7721 12.3651 19.6512 12.3866C19.6579 12.3718 19.6673 12.3585 19.6737 12.3437C19.8223 12.3363 19.9704 12.3208 20.1173 12.2972ZM54.4363 10.9305C54.4243 10.8826 54.4038 10.8386 54.3891 10.792C55.0163 10.3571 55.5107 9.75686 55.8172 9.05791C56.3574 9.05504 56.8909 8.93838 57.383 8.71556C57.875 8.49273 58.3147 8.16872 58.6732 7.76466C58.6416 7.92199 58.6255 8.08203 58.625 8.24249C58.6284 8.49315 58.6705 8.74177 58.7497 8.9796C58.0444 9.47132 57.5105 10.1712 57.2228 10.9814C56.3295 10.6337 55.3416 10.6156 54.4363 10.9305ZM79.0388 11.2367C79.0372 11.1864 79.0434 11.1345 79.0401 11.0845C79.1448 11.0841 79.2494 11.077 79.3532 11.0633C79.5125 11.5947 79.7788 12.088 80.1357 12.5129C80.0581 12.5346 79.9765 12.5477 79.901 12.5733C79.7683 12.0451 79.4653 11.5754 79.0388 11.2367Z" fill="#F9A825"/>
<path d="M8.57737 18.9209C7.4122 18.9208 6.25923 19.1581 5.18882 19.6184C4.1184 20.0786 3.15297 20.7522 2.35147 21.5979C1.54998 22.4436 0.929232 23.4437 0.527069 24.5373C0.124907 25.6309 -0.0502154 26.7949 0.0123897 27.9584L5.57477 104.447C5.69206 106.639 6.64559 108.703 8.23899 110.214C9.8324 111.724 11.9443 112.566 14.1397 112.565H85.8603C88.0557 112.566 90.1676 111.724 91.761 110.214C93.3544 108.703 94.3079 106.639 94.4252 104.447L99.9876 27.9584C100.05 26.7949 99.8751 25.6309 99.473 24.5373C99.0708 23.4437 98.45 22.4436 97.6485 21.5979C96.847 20.7522 95.8816 20.0786 94.8112 19.6184C93.7408 19.1581 92.5878 18.9208 91.4226 18.9209H8.57737Z" fill="#3F3D56"/>
<path d="M17.5532 18.9209H12.6245V112.565H17.5532V18.9209Z" fill="#61573C"/>
<path d="M31.5175 18.9209H26.5889V112.565H31.5175V18.9209Z" fill="#61573C"/>
<path d="M45.4821 18.9209H40.5535V112.565H45.4821V18.9209Z" fill="#61573C"/>
<path d="M59.4467 18.9209H54.5181V112.565H59.4467V18.9209Z" fill="#61573C"/>
<path d="M73.4111 18.9209H68.4824V112.565H73.4111V18.9209Z" fill="#61573C"/>
<path d="M87.3757 18.9209H82.447V112.565H87.3757V18.9209Z" fill="#61573C"/>
</svg>
