<svg width="40" height="40" viewBox="0 0 40 40" fill="none" xmlns="http://www.w3.org/2000/svg">
<path d="M0 7.5C0 4.74219 2.24219 2.5 5 2.5H35C37.7578 2.5 40 4.74219 40 7.5V32.5C40 35.2578 37.7578 37.5 35 37.5H5C2.24219 37.5 0 35.2578 0 32.5V7.5ZM3.75 28.75V31.25C3.75 31.9375 4.3125 32.5 5 32.5H7.5C8.1875 32.5 8.75 31.9375 8.75 31.25V28.75C8.75 28.0625 8.1875 27.5 7.5 27.5H5C4.3125 27.5 3.75 28.0625 3.75 28.75ZM32.5 27.5C31.8125 27.5 31.25 28.0625 31.25 28.75V31.25C31.25 31.9375 31.8125 32.5 32.5 32.5H35C35.6875 32.5 36.25 31.9375 36.25 31.25V28.75C36.25 28.0625 35.6875 27.5 35 27.5H32.5ZM3.75 18.75V21.25C3.75 21.9375 4.3125 22.5 5 22.5H7.5C8.1875 22.5 8.75 21.9375 8.75 21.25V18.75C8.75 18.0625 8.1875 17.5 7.5 17.5H5C4.3125 17.5 3.75 18.0625 3.75 18.75ZM32.5 17.5C31.8125 17.5 31.25 18.0625 31.25 18.75V21.25C31.25 21.9375 31.8125 22.5 32.5 22.5H35C35.6875 22.5 36.25 21.9375 36.25 21.25V18.75C36.25 18.0625 35.6875 17.5 35 17.5H32.5ZM3.75 8.75V11.25C3.75 11.9375 4.3125 12.5 5 12.5H7.5C8.1875 12.5 8.75 11.9375 8.75 11.25V8.75C8.75 8.0625 8.1875 7.5 7.5 7.5H5C4.3125 7.5 3.75 8.0625 3.75 8.75ZM32.5 7.5C31.8125 7.5 31.25 8.0625 31.25 8.75V11.25C31.25 11.9375 31.8125 12.5 32.5 12.5H35C35.6875 12.5 36.25 11.9375 36.25 11.25V8.75C36.25 8.0625 35.6875 7.5 35 7.5H32.5ZM12.5 10V15C12.5 16.3828 13.6172 17.5 15 17.5H25C26.3828 17.5 27.5 16.3828 27.5 15V10C27.5 8.61719 26.3828 7.5 25 7.5H15C13.6172 7.5 12.5 8.61719 12.5 10ZM15 22.5C13.6172 22.5 12.5 23.6172 12.5 25V30C12.5 31.3828 13.6172 32.5 15 32.5H25C26.3828 32.5 27.5 31.3828 27.5 30V25C27.5 23.6172 26.3828 22.5 25 22.5H15Z" fill="white"/>
</svg>
