<svg width="20" height="23" viewBox="0 0 20 23" fill="none" xmlns="http://www.w3.org/2000/svg">
<g clip-path="url(#clip0_162_19)">
<path d="M12.2527 3.57164C12.2527 2.78146 11.5652 2.14307 10.7142 2.14307C9.86327 2.14307 9.17577 2.78146 9.17577 3.57164V10.0002H2.25269C1.40173 10.0002 0.714233 10.6386 0.714233 11.4288C0.714233 12.219 1.40173 12.8574 2.25269 12.8574H9.17577V19.2859C9.17577 20.0761 9.86327 20.7145 10.7142 20.7145C11.5652 20.7145 12.2527 20.0761 12.2527 19.2859V12.8574H19.1758C20.0267 12.8574 20.7142 12.219 20.7142 11.4288C20.7142 10.6386 20.0267 10.0002 19.1758 10.0002H12.2527V3.57164Z" fill="white"/>
</g>
<defs>
<clipPath id="clip0_162_19">
<rect width="20" height="22.8571" fill="white"/>
</clipPath>
</defs>
</svg>
